<svg xmlns="http://www.w3.org/2000/svg" width="512" height="512" fill="none"><style>@media (prefers-color-scheme:dark){.part{stroke:#fff}}</style><path stroke="#0F172A" stroke-linecap="round" stroke-linejoin="round" stroke-width="49.765" d="M124.53 476h248.826m-124.413 0a223.944 223.944 0 0 0 223.943-223.943H25A223.944 223.944 0 0 0 248.943 476Z" class="part"/><path stroke="#0F172A" stroke-linecap="round" stroke-linejoin="round" stroke-width="49.765" d="M233.516 252.057a59.71 59.71 0 0 1-40.777-15.572 59.724 59.724 0 0 1-19.29-39.152 59.73 59.73 0 0 1 12.5-41.82 59.73 59.73 0 0 1 37.614-22.146 59.714 59.714 0 0 1 47.926-71.982 59.73 59.73 0 0 1 31.698 3.058 59.714 59.714 0 0 1 39.74-26.736 59.714 59.714 0 0 1 46.602 11.06 59.72 59.72 0 0 1 83.854 83.854 59.734 59.734 0 0 1 11.064 25.334 59.725 59.725 0 0 1-38.435 66.731 62.443 62.443 0 0 1 .747 27.371m-172.934 0 99.53-99.53" class="part"/><path stroke="#0F172A" stroke-linecap="round" stroke-linejoin="round" stroke-width="49.765" d="M221.572 133.865a99.285 99.285 0 0 0-109.166-24.302 99.288 99.288 0 0 0-45.562 36.723 99.287 99.287 0 0 0-16.962 56.006c0 18.164 4.977 35.085 13.437 49.765" class="part"/></svg>